<?xml version="1.0" encoding="UTF-8"?>
<!DOCTYPE svg PUBLIC "-//W3C//DTD SVG 1.1//EN" "http://www.w3.org/Graphics/SVG/1.1/DTD/svg11.dtd">
<!-- Creator: CorelDRAW 2021 (64-Bit Evaluation Version) -->
<svg xmlns="http://www.w3.org/2000/svg" xml:space="preserve" width="131.246mm" height="130.849mm" version="1.1" style="shape-rendering:geometricPrecision; text-rendering:geometricPrecision; image-rendering:optimizeQuality; fill-rule:evenodd; clip-rule:evenodd"
viewBox="0 0 12503.73 12465.92"
 xmlns:xlink="http://www.w3.org/1999/xlink"
 xmlns:xodm="http://www.corel.com/coreldraw/odm/2003">
 <defs>
  <style type="text/css">
   <![CDATA[
    .fil0 {fill:#2B2A29}
   ]]>
  </style>
 </defs>
 <g id="Layer_x0020_1">
  <metadata id="CorelCorpID_0Corel-Layer"/>
  <path class="fil0" d="M3.36 3039.86l1.07 -3032.29 6003.8 5790.59c64.75,-7.02 130.45,-10.73 197.04,-10.73 48.92,0 97.41,2.05 145.35,5.83l3598.14 -4548.71 -1219.52 -1244.55 3743.2 1.57 -1.91 3816.52 -1069.74 -1091.67 -3452.2 4394.25c40.75,150.67 62.63,309.18 62.63,472.76 0,997.36 -808.54,1805.94 -1805.95,1805.94 -997.41,0 -1805.95,-808.58 -1805.95,-1805.94 0,-39.04 1.41,-77.84 3.83,-116.24l-4399.79 -4437.33zm10209.92 4573.58l0 4852.49 2290.44 0 0 -7202.33 -2290.44 2349.84zm-7922.83 0l0 4852.49 -2290.45 0 0 -7202.33 2290.45 2349.84z"/>
 </g>
</svg>
